# xmcd
#
# Track frame offsets:
#	150
#	18619
#	33581
#	49743
#	61868
#	77328
#	92828
#	106320
#	123657
#	138779
#	155265
#	171169
#	185688
#	201837
#	215257
#	229973
#	253317
#
# Disc length: 3566 seconds
#
# Revision: 0
# Processed by: cddbd v1.5.2PL0 Copyright (c) Steve Scherf et al.
# Submitted via: EasyCDDAExtractor 5.0.5.1
#
DISCID=eb0dec11
DTITLE=Various Artist - MULTI HOTT COUNTRY # 136
DYEAR=1900
DGENRE=
TTITLE0=Faith Hill - Lost
TTITLE1=Dierks Bentley - Free And Easy Down The Road I Go
TTITLE2=Gretchan Wilson - One Of The Boys
TTITLE3=Duane Steele - WHAT D'YA SAY
TTITLE4=Kenny Chesney - Never Wanted Nothing More
TTITLE5=Sara Evans - As If
TTITLE6=Michelle Wright - DANCE IN THE BOAT
TTITLE7=Rodney Carrington - SHOW THEM TO ME
TTITLE8=Van Zant - THAT SCARES ME
TTITLE9=Patrica Conroy - Ray of Sun
TTITLE10=Martina McBride - How I Feel
TTITLE11=Willie Mack - Gotta Get Me A Cadillac
TTITLE12=J.R Vatour - HANGOVER
TTITLE13=Joe Nichols - Another Side Of You
TTITLE14=Brooks and Dunn - Proud Of The House We Built
TTITLE15=John Mellencamp - THE AMERICANS
TTITLE16=Kenny Rogers - DAYTIME FRIENDS
EXTD=September 2006\n
EXTT0=
EXTT1=
EXTT2=
EXTT3=
EXTT4=
EXTT5=
EXTT6=
EXTT7=
EXTT8=
EXTT9=
EXTT10=
EXTT11=
EXTT12=
EXTT13=
EXTT14=
EXTT15=
EXTT16=
PLAYORDER=
